<svg xmlns="http://www.w3.org/2000/svg" fill-rule="evenodd" stroke-linejoin="round" stroke-miterlimit="2" clip-rule="evenodd" viewBox="0 0 513 513" id="Comment"><rect width="512" height="512" x=".551" y=".5" fill="none"></rect><clipPath id="a"><rect width="512" height="512" x=".551" y=".5" fill="#d8a353" class="color000000 svgShape"></rect></clipPath><g clip-path="url(#a)" fill="#d8a353" class="color000000 svgShape"><path d="M338.776,125.583l53.977,-100.306c12.322,-22.896 40.872,-31.47 63.768,-19.148c0.264,0.142 0.528,0.284 0.792,0.426c22.897,12.321 31.47,40.871 19.149,63.768l-34.905,64.863c6.433,3.526 12.393,7.971 17.674,13.252c14.634,14.634 22.855,34.482 22.855,55.177c0,38.151 0,92.095 0,130.129c0,20.584 -8.177,40.325 -22.732,54.88c-14.555,14.555 -34.296,22.732 -54.88,22.732l-25.408,0l-92.215,91.821c-10.11,10.068 -25.665,12.225 -38.134,5.289c-12.469,-6.936 -18.84,-21.29 -15.618,-35.19l14.35,-61.92l-138.827,0c-20.584,0 -40.325,-8.177 -54.88,-22.732c-14.555,-14.555 -22.732,-34.296 -22.732,-54.88l0,-130.548c0,-20.584 8.177,-40.325 22.732,-54.881c14.555,-14.555 34.296,-22.732 54.88,-22.732l230.154,0Zm-17.219,32l-212.935,0c-12.097,0 -23.698,4.806 -32.252,13.36c-8.554,8.554 -13.36,20.156 -13.36,32.253l0,130.548c0,12.097 4.806,23.699 13.36,32.253c8.554,8.554 20.155,13.359 32.252,13.359l179.092,0l-23.441,101.145l101.579,-101.145l38.622,0c12.097,0 23.699,-4.805 32.253,-13.359c8.554,-8.554 13.359,-20.156 13.359,-32.253c0,-38.034 0,-91.978 0,-130.129c0,-12.208 -4.85,-23.917 -13.482,-32.549c-3.056,-3.056 -6.498,-5.638 -10.212,-7.699l-32.206,59.849c-2.923,5.432 -7.353,9.903 -12.758,12.875l-25.048,13.776c-9.511,5.231 -21.026,5.283 -30.584,0.139c-9.559,-5.143 -15.858,-14.782 -16.733,-25.601l-2.302,-28.493c-0.497,-6.149 0.794,-12.31 3.717,-17.741l11.079,-20.588Zm-201.56,137.075l173,0c8.831,0 16,-7.169 16,-16c0,-8.83 -7.169,-16 -16,-16l-173,0c-8.831,0 -16,7.17 -16,16c0,8.831 7.169,16 16,16Zm0,-60l133,0c8.831,0 16,-7.169 16,-16c0,-8.83 -7.169,-16 -16,-16l-133,0c-8.831,0 -16,7.17 -16,16c0,8.831 7.169,16 16,16Zm246.01,-26.606l82.276,-152.893c3.946,-7.334 1.2,-16.479 -6.134,-20.425c-0.264,-0.142 -0.528,-0.284 -0.792,-0.426c-7.333,-3.947 -16.478,-1.201 -20.424,6.133l-82.276,152.893l2.302,28.493l25.048,-13.775Z" fill="#d8a353" class="color000000 svgShape"></path></g></svg>